TITLE "Transistor Blast [disc 1] Studio Sessions"
PERFORMER "XTC"
REM DATE "1996"
REM DISCID 8F0B640D
FILE "XTC - Transistor Blast [disc 1] Studio Sessions.flac" WAVE
  TRACK 01 AUDIO
    TITLE "Opening Speech (Intro)"
    PERFORMER "XTC"
    INDEX 00 00:00:00
    INDEX 01 00:00:30
  TRACK 02 AUDIO
    TITLE "Life Begins At The Hop"
    PERFORMER "XTC"
    INDEX 01 00:50:47
  TRACK 03 AUDIO
    TITLE "Scarecrow People"
    PERFORMER "XTC"
    INDEX 01 05:10:11
  TRACK 04 AUDIO
    TITLE "Seagulls Screaming Kiss Her Kiss Her"
    PERFORMER "XTC"
    INDEX 01 09:23:51
  TRACK 05 AUDIO
    TITLE "Ten Feet Tall"
    PERFORMER "XTC"
    INDEX 01 13:45:28
  TRACK 06 AUDIO
    TITLE "Garden Of Earthly Delights"
    PERFORMER "XTC"
    INDEX 01 16:39:15
  TRACK 07 AUDIO
    TITLE "Runaways"
    PERFORMER "XTC"
    INDEX 01 22:12:74
  TRACK 08 AUDIO
    TITLE "When You're Near Me I Have Difficulty"
    PERFORMER "XTC"
    INDEX 01 26:54:71
  TRACK 09 AUDIO
    TITLE "I'm Bugged"
    PERFORMER "XTC"
    INDEX 01 30:02:02
  TRACK 10 AUDIO
    TITLE "Another Satellite"
    PERFORMER "XTC"
    INDEX 01 33:37:08
  TRACK 11 AUDIO
    TITLE "You're The Wish You Are I Had"
    PERFORMER "XTC"
    INDEX 01 37:58:05
  TRACK 12 AUDIO
    TITLE "Crosswires"
    PERFORMER "XTC"
    INDEX 01 41:22:27
  TRACK 13 AUDIO
    TITLE "Roads Girdle The Globe"
    PERFORMER "XTC"
    INDEX 01 43:32:37
